<?xml version="1.0" standalone="no"?>
<!DOCTYPE svg PUBLIC "-//W3C//DTD SVG 20010904//EN"
 "http://www.w3.org/TR/2001/REC-SVG-20010904/DTD/svg10.dtd">
<svg version="1.0" xmlns="http://www.w3.org/2000/svg"
 width="389.000000pt" height="389.000000pt" viewBox="0 0 389.000000 389.000000"
 preserveAspectRatio="xMidYMid meet">
<metadata>
Created by potrace 1.11, written by Peter Selinger 2001-2013
</metadata>
<g transform="translate(0.000000,389.000000) scale(0.100000,-0.100000)"
fill="#000000" stroke="none">
<path d="M1746 3879 c-646 -61 -1108 -442 -1176 -969 -22 -170 8 -385 74 -533
85 -192 256 -353 511 -480 132 -66 226 -96 680 -222 226 -63 451 -128 500
-145 315 -111 451 -272 415 -496 -16 -97 -54 -168 -135 -250 -119 -120 -256
-175 -492 -195 -442 -38 -878 118 -1233 440 -45 40 -82 72 -84 70 -21 -27
-337 -470 -347 -487 -13 -23 -11 -27 56 -89 291 -271 631 -430 1065 -498 142
-22 483 -31 635 -16 318 31 610 130 796 271 343 258 502 721 393 1148 -73 289
-248 486 -579 650 -140 70 -194 88 -688 228 -241 68 -482 140 -535 160 -273
101 -381 233 -352 431 25 181 174 324 395 380 109 27 414 24 555 -6 280 -60
535 -183 705 -343 l64 -59 192 248 192 247 -59 53 c-266 240 -647 404 -1051
452 -126 16 -386 21 -497 10z"/>
</g>
</svg>
