<?xml version="1.0" encoding="utf-8"?>
<!-- Generator: Adobe Illustrator 21.1.0, SVG Export Plug-In . SVG Version: 6.00 Build 0)  -->
<svg version="1.1" id="Layer_1" xmlns="http://www.w3.org/2000/svg" xmlns:xlink="http://www.w3.org/1999/xlink" x="0px" y="0px"
	 viewBox="0 0 1284 200.2" style="enable-background:new 0 0 1284 200.2;" xml:space="preserve">
<style type="text/css">
	.st0{enable-background:new    ;}
</style>
<title>soundvision</title>
<g class="st0">
	<path d="M3.9,143.5L19,121.9c5,5.3,11,9.5,18,12.8c7,3.3,14.7,4.9,23,4.9c7.3,0,12.8-1.4,16.7-4.2c3.8-2.8,5.8-6.2,5.8-10.4
		c0-2.7-1.1-5-3.2-6.9s-5-3.4-8.4-4.4c-3.5-1-7.5-2.1-11.9-3.3s-9-2.4-13.7-3.4c-4.7-1-9.2-2.6-13.7-4.6c-4.4-2-8.4-4.3-11.9-6.9
		c-3.5-2.6-6.3-6.2-8.4-10.7c-2.1-4.5-3.2-9.7-3.2-15.5c0-11.1,4.5-20.4,13.4-27.9c8.9-7.5,20.8-11.3,35.6-11.3
		c20.6,0,37.4,5.9,50.3,17.8L92.2,68.8c-5.1-4.7-10.9-8.2-17.5-10.6c-6.6-2.4-13.2-3.6-20-3.6c-5.7,0-10.2,1.1-13.4,3.4
		c-3.2,2.3-4.8,5.4-4.8,9.2c0,2.4,1.1,4.4,3.2,6.2c2.1,1.8,5,3.1,8.5,4.1c3.5,1,7.5,2,12,3.1c4.5,1.1,9,2.2,13.6,3.4
		c4.6,1.1,9.1,2.7,13.5,4.8c4.4,2.1,8.3,4.5,11.8,7.2s6.2,6.4,8.3,10.9c2.1,4.5,3.1,9.7,3.1,15.6c0,12.3-4.4,22.3-13.3,30
		c-8.8,7.6-21.6,11.5-38.2,11.5C36,163.9,17.6,157.1,3.9,143.5z"/>
	<path d="M127.9,123.9c-3.4-8.3-5.1-17.3-5.1-27c0-9.6,1.7-18.6,5.1-26.9c3.4-8.3,8-15.4,14-21.2c5.9-5.8,13.1-10.4,21.5-13.7
		c8.4-3.3,17.4-5,27.1-5c12.9,0,24.4,2.8,34.7,8.5c10.3,5.7,18.3,13.6,24.1,23.8c5.8,10.2,8.7,21.7,8.7,34.6
		c0,12.9-2.9,24.4-8.7,34.6c-5.8,10.2-13.8,18.2-24.1,23.8c-10.3,5.7-21.8,8.5-34.7,8.5c-9.7,0-18.7-1.7-27.1-5
		c-8.4-3.3-15.6-7.9-21.5-13.8C136,139.3,131.3,132.3,127.9,123.9z M151.2,97c0,12.3,3.6,22.5,10.8,30.6
		c7.2,8.1,16.7,12.1,28.5,12.1c11.7,0,21.2-4,28.4-12.1c7.2-8.1,10.8-18.3,10.8-30.6c0-12.4-3.6-22.6-10.8-30.6
		c-7.2-8-16.7-12-28.4-12c-11.9,0-21.4,4-28.5,12C154.8,74.4,151.2,84.6,151.2,97z"/>
	<path d="M277.3,109.8V32.3h27.9v76.9c0,9.2,2.6,16.6,7.9,22.2c5.3,5.6,12.8,8.3,22.6,8.3c9.7,0,17.2-2.8,22.4-8.3
		c5.2-5.5,7.8-12.9,7.8-22.2V32.3h27.9v77.5c0,8.1-1.2,15.4-3.6,22c-2.4,6.6-6,12.3-10.7,17.1c-4.7,4.8-10.8,8.6-18.2,11.2
		c-7.5,2.6-16,3.9-25.6,3.9c-19.1,0-33.6-4.9-43.5-14.7C282.2,139.5,277.3,126.3,277.3,109.8z"/>
	<path d="M419.5,161.6V32.3h28.3l59.9,81.2V32.3h27.5v129.3h-26.6l-61.6-84.3v84.3H419.5z"/>
	<path d="M560.8,161.6V32.3h50.9c20.3,0,36.8,5.9,49.5,17.8c12.7,11.9,19,27.5,19,46.8c0,12.9-2.9,24.2-8.6,34.1
		c-5.8,9.8-13.8,17.4-24.1,22.7c-10.3,5.3-22.2,8-35.5,8H560.8z M588.3,137.3h23.5c8.3,0,15.5-1.9,21.8-5.6
		c6.2-3.7,10.9-8.6,14.1-14.7c3.1-6.1,4.7-12.8,4.7-20.3c0-11.8-3.5-21.5-10.6-29c-7.1-7.5-17-11.3-29.7-11.3h-23.7V137.3z"/>
</g>
<g class="st0">
	<path d="M691.2,32.3h7.2l50.4,122.1l50.5-122.1h7.2l-54,129.3h-7.4L691.2,32.3z"/>
	<path d="M827.4,161.6V32.3h6.2v129.3H827.4z"/>
	<path d="M860.9,143.3l5-4.4c4.5,5.5,10.2,10.1,17,13.7c6.8,3.7,14.5,5.5,23.1,5.5c7.1,0,13.2-0.9,18.3-2.8c5.1-1.9,9-4.3,11.6-7.3
		c2.6-3,4.5-6.1,5.7-9.3c1.2-3.2,1.8-6.4,1.8-9.8c0-4.5-0.9-8.5-2.7-12c-1.8-3.5-4.2-6.3-7.2-8.4c-3-2.1-6.5-4-10.4-5.7
		c-3.9-1.6-8.1-3.1-12.4-4.3c-4.4-1.3-8.7-2.5-13-3.7c-4.3-1.2-8.4-2.7-12.3-4.4c-3.9-1.7-7.4-3.7-10.4-5.9c-3-2.2-5.4-5.2-7.2-8.8
		c-1.8-3.6-2.7-7.8-2.7-12.5c0-6.8,1.9-12.7,5.7-17.8c3.8-5.1,8.8-8.9,14.9-11.5c6.1-2.5,12.7-3.8,19.9-3.8c18,0,32,6.1,41.8,18.3
		l-4.8,4.4c-8.6-11.2-21-16.8-37-16.8c-9.5,0-17.5,2.6-24,7.7c-6.5,5.1-9.8,11.6-9.8,19.5c0,5.1,1.4,9.4,4.3,12.9
		c2.9,3.5,6.6,6.2,11.2,8.2c4.6,2,9.6,3.8,15.2,5.6c5.5,1.7,11.1,3.4,16.8,5.2c5.6,1.7,10.8,3.9,15.4,6.5c4.6,2.6,8.4,6.2,11.3,10.8
		c2.9,4.6,4.4,10.2,4.4,16.6c0,3.2-0.4,6.2-1.2,9.3c-0.8,3-2.2,6.1-4.4,9.3c-2.1,3.2-4.8,6-8,8.4c-3.2,2.4-7.5,4.4-12.7,5.9
		c-5.3,1.5-11.2,2.3-17.9,2.3c-9.7,0-18.4-1.9-26.1-5.6S865.8,149.6,860.9,143.3z"/>
	<path d="M979,161.6V32.3h6.2v129.3H979z"/>
	<path d="M1022.3,130.9c-5-10.1-7.4-21.4-7.4-33.9c0-12.5,2.5-23.8,7.4-33.9c5-10.1,12.1-18.1,21.5-24.1c9.4-6,20.2-8.9,32.5-8.9
		c12.2,0,23,3,32.4,8.9c9.4,6,16.6,14,21.6,24.1c5,10.1,7.5,21.4,7.5,33.8c0,12.4-2.5,23.7-7.5,33.8c-5,10.1-12.2,18.2-21.6,24.1
		c-9.4,6-20.2,8.9-32.4,8.9c-12.2,0-23.1-3-32.5-8.9C1034.4,149,1027.2,141,1022.3,130.9z M1021.6,97c0,11.7,2.2,22.1,6.6,31.3
		c4.4,9.2,10.7,16.5,19.1,21.8c8.3,5.3,18,8,29,8c10.9,0,20.4-2.7,28.8-8c8.3-5.3,14.7-12.6,19.2-21.8c4.5-9.2,6.7-19.7,6.7-31.3
		c0-11.8-2.2-22.3-6.7-31.5c-4.5-9.2-10.9-16.4-19.2-21.7c-8.3-5.2-17.9-7.9-28.8-7.9c-11,0-20.6,2.6-29,7.9
		c-8.3,5.2-14.7,12.5-19.1,21.7C1023.8,74.7,1021.6,85.2,1021.6,97z"/>
	<path d="M1167.3,161.6V32.3h6.2l87.2,118v-118h6.2v129.3h-6.2l-87.2-119.3v119.3H1167.3z"/>
</g>
</svg>
